<svg width="263" height="502" viewBox="0 0 263 502" fill="none" xmlns="http://www.w3.org/2000/svg">
<path id="Face" d="M151.877 20.436C151.247 8.24085 138.144 1 130.963 1C119.31 1 112.003 13.0046 110.869 17.9588C110.145 21.12 109.798 26.9146 109.924 28.6932C110.05 30.4718 110.302 33.3933 110.176 34.8544C110.947 37.787 112.696 43.6197 112.696 47.4306C112.948 49.3998 113.137 52.1944 113.955 54.6079C115.089 56.1322 122.459 63.5 130.648 63.5C138.838 63.5 144.444 60.197 147.924 54.7348C148.916 52.5911 149.814 48.923 149.719 47.6368C149.452 45.6837 151.499 36.9501 151.877 35.1719C152.129 32.3773 152.507 32.6311 151.877 20.436Z" fill="#E2E2E2" stroke="#FF8080"/>
<path id="LeftEye" d="M122.286 33.1183C125.561 33.1183 127.833 31.5638 127.833 29.6461C127.833 27.7283 125.561 26.1738 122.286 26.1738C119.01 26.1738 116.355 27.7283 116.355 29.6461C116.355 31.5638 119.01 33.1183 122.286 33.1183Z" fill="#E2E2E2" stroke="#FF8080"/>
<path id="RightEye" d="M140.927 33.1183C143.998 33.1183 146.487 31.5638 146.487 29.6461C146.487 27.7283 143.998 26.1738 140.927 26.1738C137.857 26.1738 135.727 27.7283 135.727 29.6461C135.727 31.5638 137.857 33.1183 140.927 33.1183Z" fill="#E2E2E2" stroke="#FF8080"/>
<path id="LeftEar" d="M107.804 34.6148C106.466 36.0794 107.191 40.8393 107.526 42.1819C107.86 43.5246 109.477 47.5522 109.923 47.9791C110.369 48.406 111.651 49.7487 112.766 47.3687C112.766 43.7073 111.218 38.1034 110.536 35.286C110.202 34.6148 109.142 33.1502 107.804 34.6148Z" fill="#E2E2E2" stroke="#FF8080"/>
<path id="RightEar" d="M150.053 47.7072C151.327 50.0473 153.068 48.9002 153.45 47.0649C153.832 45.2295 156.04 44.1742 155.743 38.3928C155.445 32.6114 153.011 34.1101 151.992 35.701C151.652 37.4138 149.812 45.826 150.053 47.7072Z" fill="#E2E2E2" stroke="#FF8080"/>
<path id="Nose" d="M127.838 33.7817C127.695 34.9797 125.926 36.2256 125.688 38.8132C125.52 40.6269 128.077 41.6884 129.606 41.305C131.518 42.3113 132.187 41.5446 133.381 41.0654C135.58 41.4008 136.44 39.8195 136.44 38.0944C136.44 36.3693 134.767 35.5068 134.576 33.3984C134.385 31.2899 133.286 30.4753 133.381 28.2231C133.477 25.9709 132.473 24.4375 131.055 24.4375C129.063 24.4375 128.65 27.4564 128.794 28.5106C128.937 29.5648 127.981 32.5837 127.838 33.7817Z" fill="#E2E2E2" stroke="#FF8080"/>
<path id="Lip" d="M135.2 45.0638C134.355 44.0269 132.865 44.4347 132.249 44.7782C131.918 44.9625 130.937 45.1114 130.328 44.6354C129.72 44.1594 128.033 44.5878 127.565 45.2542C127.096 45.9205 123.162 47.2057 122.834 48.3481C122.506 49.4904 126.066 49.5856 126.956 49.9188C127.846 50.252 128.642 51.3468 131.874 51.3468C135.106 51.3468 135.984 50.2855 136.839 50.1092C137.695 49.9329 139.884 49.6808 140.025 48.7765C140.165 47.8721 136.558 46.7297 135.2 45.0638Z" fill="#E2E2E2" stroke="#FF8080"/>
<path id="Neck" d="M110.36 86.5017C116.198 86.1894 125.699 85.6896 127.251 87.8767C128.803 90.0638 133.15 90.1264 134.578 87.8767C136.007 85.627 148.747 85.5351 153.518 86.252C155.363 86.5291 157.182 86.5557 158.898 86.3881C162.987 85.9884 166.488 84.4841 168.34 82.6322C165.028 82.6626 161.438 80.6844 156.778 78.6124C150.77 75.9405 147.603 72.6597 147.371 71.6286C147.138 70.5974 147.417 58.6927 147.697 54.9432C144.266 60.3174 138.739 63.5671 130.666 63.5671C122.593 63.5671 115.328 56.3182 114.21 54.8184C115.018 57.1929 114.769 66.0043 114.49 71.816C111.323 77.534 99.5862 80.8149 96.6055 82.1272C97.3663 82.7477 100.59 84.6011 104.377 85.6922C106.309 86.249 108.388 86.6071 110.36 86.5017Z" fill="#E2E2E2" stroke="#FF8080"/>
<path id="Chest" d="M177.485 105.773C176.726 97.9212 163.295 87.5137 159.231 86.4211C157.501 86.5903 155.665 86.5634 153.805 86.2838C148.991 85.5606 136.138 85.6529 134.697 87.9235C133.257 90.1942 128.871 90.131 127.305 87.9235C125.739 85.7161 116.154 86.2206 110.265 86.5358C108.275 86.6421 106.178 86.2807 104.229 85.7188C101.22 87.0357 86.9259 95.7194 84.6353 107.785C84.4628 108.694 84.3557 109.621 84.3294 110.567C83.9535 124.065 84.3305 137.856 84.2673 143.007C84.4113 142.971 87.9006 152.51 88.8403 154.655C89.78 156.8 90.7505 161.404 92.0661 163.959C95.1671 166.892 109.639 173.514 119.599 170.865C129.56 168.216 133.319 168.502 144.032 170.914C154.744 173.325 163.829 169.856 171.502 160.616C171.972 159.386 173.288 156.169 173.507 154.939C173.726 153.709 174.51 152.291 175.042 151.25C175.575 150.209 177.844 143.047 178.051 143.236C178.304 138.187 177.924 110.315 177.485 105.773Z" fill="#E2E2E2" stroke="#FF8080"/>
<path  id="Belly" d="M143.971 170.835C133.426 168.427 129.726 168.141 119.922 170.787C110.117 173.433 95.8727 166.818 92.8203 163.889C94.1153 166.44 93.5603 168.425 94.2078 170.598C94.8552 172.771 96.0577 178.661 94.3927 186.284C92.7278 193.906 93.776 199.764 94.2078 201.464C94.4982 202.609 95.0683 203.355 94.7328 204.795C99.0176 209.149 105.986 217.842 131.915 217.842C157.845 217.842 163.888 210.095 168.451 205.181C167.835 203.48 168.266 200.646 169.376 197.181C170.486 193.716 168.081 180.299 167.958 177.213C167.834 174.126 168.883 169.087 168.976 166.787C169.068 164.488 170.548 161.779 171.011 160.551C163.457 169.779 154.515 173.244 143.971 170.835Z" fill="#E2E2E2" stroke="#FF8080"/>
<path id="LowerAbdomen" d="M132.058 217.867C106.157 217.867 99.1971 209.175 94.9171 204.822C94.7545 205.522 94.3783 206.386 93.6536 207.538C92.6528 209.131 91.8025 213.392 91.1875 217.867C95.0088 221.278 111.961 235.982 122.262 249.093C125.313 247.656 135.55 247.164 140.594 248.922C151.021 236.441 168.298 222.075 172.247 218.875C171.878 213.711 169.167 206.909 168.552 205.208C163.994 210.121 157.958 217.867 132.058 217.867Z" fill="#E2E2E2" stroke="#FF8080"/>
<path id="ReproductiveOrgan" d="M122.031 248.983C124.902 252.524 127.265 255.946 128.707 258.99C129.083 258.183 129.741 257.935 131.276 257.81C132.811 257.686 133.438 258.121 133.877 258.4C135.305 255.536 137.722 252.247 140.682 248.814C135.55 247.081 125.135 247.567 122.031 248.983Z" fill="#E2E2E2" stroke="#FF8080"/>
<path id="LeftArm" d="M84.733 107.545C87.062 95.5742 101.596 86.9586 104.655 85.652C100.771 84.5594 97.464 82.7034 96.684 82.082C93.6265 83.3962 90.7601 82.833 86.4605 83.6778C82.1609 84.5226 70.5997 88.6528 66.0134 97.8518C61.4272 107.051 62.3827 119.254 62.4782 122.539C62.4912 122.99 62.4828 123.387 62.456 123.749C67.3733 117.971 79.1607 116.567 84.733 107.545Z" fill="#E2E2E2" stroke="#FF8080"/>
<path id="RightArm" d="M177.209 105.852C182.27 117.258 194.462 117.338 199.175 124.268C198.887 122.961 198.799 121.247 199.046 118.779C199.77 111.552 197.218 98.9611 192.345 92.7355C187.471 86.5098 172.429 82.5653 168.504 82.6018C166.641 84.4796 163.119 86.0049 159.004 86.4102C163.057 87.5078 176.452 97.9635 177.209 105.852Z" fill="#E2E2E2" stroke="#FF8080"/>
<path id="LeftBicep" d="M84.2402 109.825C84.266 108.874 84.3704 107.943 84.5396 107.029C79.177 116.167 67.8328 117.589 63.1009 123.441C62.9402 125.742 62.0291 126.519 60.3637 129.061C58.4324 132.009 54.7543 143.988 53.467 148.552C53.2805 149.213 53.1374 149.78 53.0179 150.282C52.4982 157.027 56.96 160.123 62.0001 162.307C66.1909 164.122 71.0117 165.465 74.3032 162.894C74.5647 162.306 74.9042 161.613 75.3515 160.721C76.6388 158.154 83.9445 142.485 84.1792 142.425C84.241 137.248 83.8724 123.389 84.2402 109.825Z" fill="#E2E2E2" stroke="#FF8080"/>
<path id="RightBicep" d="M200.442 163.896C205.646 161.598 209.866 158.301 208.885 150.87C208.294 146.55 202.374 131.189 200.871 128.885C200.046 127.62 199.221 126.57 198.811 124.637C194.231 117.637 182.383 117.556 177.465 106.035C177.89 110.644 178.258 138.927 178.013 144.051C178.053 144.088 185.601 160.439 186.572 162.551C189.673 167.587 195.501 166.079 200.442 163.896Z" fill="#E2E2E2" stroke="#FF8080"/>
<path id="LeftElbow" d="M62.2424 162.368C57.0619 160.147 52.4764 156.997 53.0106 150.135C52.2859 153.154 52.4397 153.813 49.6919 157.37C47.4588 160.26 43.7213 168.615 41.1719 176.3C47.1757 165.372 67.0648 178.117 69.7307 183.989C72.0571 177.67 73.9381 167.084 74.0742 165.737C74.1668 164.822 74.3819 164.089 74.887 162.966C71.5048 165.582 66.5496 164.215 62.2424 162.368Z" fill="#E2E2E2" stroke="#FF8080"/>
<path id="RightElbow" d="M221.941 178.877C221.172 175.877 220.061 172.603 218.514 169.688C216.628 166.135 212.284 158.213 211.788 157.408C210.555 155.404 209.763 153.899 209.321 150.824C210.343 158.209 205.946 161.486 200.525 163.77C195.377 165.939 189.305 167.438 186.074 162.433C187.086 164.532 188.731 166.759 188.731 169.049C188.731 169.569 189.373 174.308 190.395 178.725C191.225 182.312 192.434 185.685 192.716 186.415C192.147 181.453 216.438 164.66 221.941 178.877Z" fill="#E2E2E2" stroke="#FF8080"/>
<path id="LeftHand" d="M41.2214 176.075C40.1195 179.416 39.2416 182.629 38.8158 185.199C38.0608 189.755 35.5476 200.217 32.5962 209.131C31.9503 211.082 31.2698 212.958 30.6094 214.683C31.2504 218.136 42.7112 223.674 46.4801 221.809C47.0225 220.77 47.5091 219.89 47.8743 219.286C49.6117 216.414 52.3107 211.913 57.1502 205.785C61.9898 199.657 66.6432 190.561 69.063 184.433C69.1579 184.192 69.2521 183.941 69.3459 183.685C66.7206 177.873 47.1342 165.258 41.2214 176.075Z" fill="#E2E2E2" stroke="#FF8080"/>
<path id="RightHand" d="M231.764 215.697C230.687 212.769 229.566 209.532 228.751 207.44C227.26 203.61 223.999 187.908 221.762 179.004C216.357 164.739 192.501 181.589 193.06 186.568C195.67 193.461 206.386 209.642 208.11 211.796C209.834 213.95 214.257 220.607 215.379 222.614C217.816 226.503 232.448 219.375 231.764 215.697Z" fill="#E2E2E2" stroke="#FF8080"/>
<path id="LeftWrist" d="M30.5468 214.889C28.5846 219.795 26.7951 223.455 26.5333 224.019C26.1932 224.752 25.9745 225.281 25.3906 225.766C28.8671 225.923 36.5175 229.051 41.9017 233.118C42.7182 230.165 45.1145 225.222 46.9109 221.925C43.0249 223.767 31.2078 218.298 30.5468 214.889Z" fill="#E2E2E2" stroke="#FF8080"/>
<path id="RightWrist" d="M238.244 227.183C234.985 225.645 236.04 224.012 234.602 221.418C233.95 220.241 233.061 218.018 232.142 215.58C232.845 219.272 217.796 226.426 215.289 222.523C215.881 223.556 217.278 226.551 218.55 229.313C219.758 231.936 220.853 234.349 221.04 234.677C226.743 230.098 235.017 226.958 238.244 227.183Z" fill="#E2E2E2" stroke="#FF8080"/>
<path id="LeftPalm" d="M20.866 227.599C15.8259 229.021 8.3835 235.276 6.64067 236.413C4.89783 237.551 3.72024 239.589 2.16582 240.394C0.611395 241.2 0.611395 243.664 2.16582 244.375C3.72024 245.086 5.7928 244.422 7.0646 243.806C8.3364 243.19 10.4719 240.6 12.9055 239.826C14.3329 239.371 15.7788 239.257 15.7788 239.873C15.7788 240.489 12.5757 248.356 12.3402 249.541C12.1047 250.725 10.88 254.801 10.1263 257.55C9.37268 260.298 8.05378 265.606 7.58274 268.639C7.1117 271.672 7.91247 273.094 9.51399 273.425C11.1155 273.757 12.4815 270.535 12.7721 269.397C13.0626 268.26 13.8475 264.563 14.2715 263.521C14.6954 262.478 16.768 256.412 17.2861 255.18C17.8042 253.948 18.1811 251.91 18.9347 252.242C19.6884 252.574 18.7934 254.469 18.2753 255.938C17.7571 257.407 15.5904 265.322 15.3077 266.791C15.0251 268.26 13.4236 274.279 13.3294 275.321C13.2352 276.364 12.6228 278.638 14.3657 279.302C16.1085 279.965 17.2861 278.591 17.9455 277.169C18.605 275.748 19.971 270.487 20.7247 267.265C21.4783 264.042 22.8914 259.872 23.4096 258.166C23.9277 256.46 24.2103 255.133 24.8698 255.18C25.5292 255.228 25.435 256.128 25.1524 256.981C24.8698 257.834 22.8443 264.8 22.4675 266.696C22.0907 268.592 20.866 272.809 20.442 274.421C20.0181 276.032 19.7826 277.928 21.3841 278.496C22.9856 279.065 23.9748 277.928 24.6814 276.695C25.3879 275.463 27.6489 268.544 28.2119 266.412C28.7749 264.279 30.0041 259.398 30.5222 257.929C31.0404 256.46 31.4643 255.796 31.8882 255.844C32.3122 255.891 31.9824 256.839 31.4643 258.497C30.9462 260.156 29.4388 265.511 28.7794 267.976C28.1199 270.44 27.9315 271.625 28.7794 272.525C29.6273 273.425 31.4485 272.32 31.8882 271.562C32.328 270.803 33.0187 267.391 34.0237 265.369C34.6553 264.099 35.4063 261.106 36.4844 258.022C37.1216 256.199 38.1184 254.345 38.6082 252.795C39.9271 248.625 40.241 245.655 41.246 241.99C42.251 238.325 41.309 237.567 41.6229 234.344C41.659 233.975 41.7525 233.527 41.8885 233.024C36.6028 228.947 29.0922 225.812 25.6792 225.654C24.9591 226.265 23.6726 226.807 20.866 227.599Z" fill="#E2E2E2" stroke="#FF8080"/>
<path id="RightPalm" d="M258.048 238.564C257.015 237.147 251.474 234.218 249.878 233.084C249.079 232.517 246.896 231.43 244.513 230.297C242.13 229.163 239.548 227.982 237.951 227.226C234.789 227.005 226.682 230.092 221.095 234.596C221.47 235.257 220.766 237.288 221.141 240.737C221.517 244.186 222.691 249.524 223.536 252.878C224.381 256.232 226.166 259.823 226.729 261.523C227.293 263.224 230.261 272.621 231.471 273.617C232.504 274.468 234.289 273.901 234.57 272.578C234.852 271.255 233.96 268.468 233.631 267.24C233.303 266.011 231.518 259.964 231.19 259.02C230.861 258.075 230.438 257.083 231.096 257.083C231.753 257.083 231.894 258.122 232.317 259.209C232.739 260.295 234.523 266.578 234.899 268.326C235.275 270.074 236.589 274.751 237.247 276.546C237.904 278.341 239.125 280.326 240.628 280.231C242.13 280.137 242.459 278.436 242.553 277.066C242.647 275.696 240.346 268.184 240.158 266.625C239.97 265.067 238.139 259.35 237.857 258.594C237.576 257.839 237.341 256.705 238.092 256.658C238.843 256.61 239.172 258.783 239.501 259.917C239.829 261.051 243.163 271.964 243.351 273.334C243.539 274.704 244.337 278.814 245.605 280.042C246.635 281.041 247.718 281.507 248.845 280.373C249.971 279.239 249.69 276.593 249.173 274.609C248.657 272.625 247.436 266.625 247.107 265.161C246.779 263.697 244.713 257.272 244.384 256.091C244.055 254.91 243.586 254.059 243.961 253.917C244.337 253.776 244.806 254.343 245.276 255.902C245.746 257.461 247.765 263.649 248.422 265.539C249.079 267.429 248.985 269.932 249.971 272.106C250.957 274.279 252.601 274.987 253.963 274.798C255.324 274.609 255.569 272.005 255.606 270.972C255.643 269.938 253.822 263.224 253.258 260.626C252.695 258.028 251.286 254.343 250.817 251.933C250.347 249.524 248.046 243.099 247.577 242.107C247.107 241.115 247.342 240.312 248.516 240.643C249.69 240.973 251.99 241.635 253.399 243.524C254.808 245.414 257.484 246.075 258.423 246.17C259.362 246.264 261.616 246.312 261.898 243.761C262.18 241.209 259.081 239.981 258.048 238.564Z" fill="#E2E2E2" stroke="#FF8080"/>
<path id="LeftThigh" d="M90.6568 217.842C89.8917 223.317 89.4825 229.109 89.5866 230.779C89.7759 233.822 87.1261 248.281 85.2333 257.413C83.7263 264.683 80.6412 279.069 79.7917 292.6C79.574 296.065 79.8568 299.473 79.9337 302.692C80.2535 316.032 83.5454 323.805 86.043 329.108C99.5397 334.131 106.408 350.708 119.538 342.181C120.476 337.918 122.578 326.975 123.183 322.287C123.845 317.15 127 297.048 127.655 288.74C128.311 280.432 128.136 273.964 127.82 272.316C127.504 270.667 127.757 267.496 127.662 264.198C127.567 260.901 128.829 260.33 129.208 259.506C127.756 256.397 125.377 252.901 122.486 249.284C111.935 236.082 94.5709 221.277 90.6568 217.842Z" fill="#E2E2E2" stroke="#FF8080"/>
<path id="RightThigh" d="M140.42 249C137.416 252.511 134.962 255.874 133.512 258.803C133.957 259.089 134.688 260.739 135.165 261.882C135.642 263.025 135.547 269.787 135.07 273.881C134.593 277.976 135.642 296.642 136.501 300.927C137.36 305.213 139.714 322.006 140.35 326.45C140.986 330.894 142.321 338.449 143.085 341.623C156.952 351.464 163.113 333.996 177.179 328.989C179.342 325.18 182.522 318.577 183.285 309.054C183.619 304.892 183.897 298.705 183.599 292.644C183.217 284.838 182.132 277.241 181.631 274.453C180.741 269.501 175.97 242.899 175.143 239.154C174.317 235.408 173.49 223.917 173.108 218.711C169.03 221.937 151.187 236.418 140.42 249Z" fill="#E2E2E2" stroke="#FF8080"/>
<path id="LeftKnee" d="M86.1641 329.473C86.616 330.44 87.0415 331.325 87.4175 332.146C89.8415 337.437 89.655 346.32 89.8415 355.202C89.8705 356.584 89.9392 358.104 89.9712 359.707C93.9209 376.507 108.999 367.729 115.667 361.196C115.788 360.685 116.014 360.191 116.179 359.879C116.506 359.265 116.972 355.863 117.438 353.596C117.904 351.328 118.184 346.603 118.93 343.485C118.995 343.213 119.073 342.864 119.162 342.459C106.227 350.928 99.4603 334.462 86.1641 329.473Z" fill="#E2E2E2" stroke="#FF8080"/>
<path id="RightKnee" d="M143.355 341.977C144.11 345.119 144.991 347.319 144.991 351.026C144.991 354.733 146.5 359.383 146.941 360.451C153.514 367.3 169.963 378.108 173.076 357.121C173.076 352.785 174.303 342.291 174.429 338.144C174.555 333.997 174.932 333.243 177.071 329.473C163.161 334.429 157.068 351.717 143.355 341.977Z" fill="#E2E2E2" stroke="#FF8080"/>
<path id="LeftLeg" d="M89.9468 359.855C89.978 361.451 89.9732 363.129 89.8593 364.838C89.3489 372.488 88.1009 380.751 88.3537 384.945C88.7201 391.02 90.0025 408.485 91.1017 416.458C92.2009 424.432 93.6207 447.972 93.7123 449.681C93.7343 450.092 93.7152 450.539 93.6731 451.001C96.235 446.641 107.033 447.254 110.071 448.685C109.676 447.22 109.229 444.69 109.178 442.973C109.116 440.948 111.926 425.065 112.231 420.825C112.536 416.586 113.574 409.624 113.818 408.169C114.062 406.714 115.925 401.651 117.299 398.328C118.673 395.006 118.582 390.735 118.215 387.982C117.849 385.229 116.841 370.612 116.566 368.476C116.292 366.34 115.742 363.492 115.284 362.733C115.059 362.359 115.078 361.847 115.193 361.35C108.642 367.913 93.8274 376.732 89.9468 359.855Z" fill="#E2E2E2" stroke="#FF8080"/>
<path id="RightLeg" d="M147.325 360.626C147.759 361.708 146.861 366.896 145.748 373.58C144.634 380.264 144.232 392.2 144.603 395.256C144.975 398.311 148.192 406.268 148.996 408.624C149.8 410.979 149.244 411.998 149.738 416.581C150.233 421.164 152.399 434.66 153.079 439.116C153.76 443.571 153.636 447.136 152.832 449.492C155.307 447.773 168.671 446.818 169.97 452.738C169.692 451.115 169.321 448.919 169.599 444.24C169.877 439.561 171.455 421.228 172.662 410.724C173.868 400.221 175.167 379.405 174.332 373.867C173.497 368.328 173.033 361.644 173.033 357.252C169.97 378.514 153.791 367.565 147.325 360.626Z" fill="#E2E2E2" stroke="#FF8080"/>
<path id="LeftAnkle" d="M93.4891 450.992C93.3566 452.489 92.9824 454.147 92.8436 455.329C92.6611 456.886 93.6195 458.685 93.3456 461.506C93.3332 461.635 93.3124 461.767 93.2923 461.898C97.9164 460.177 107.985 465.271 111.182 470.099C111.612 467.058 111.57 464.173 111.007 462.674C110.399 461.053 110.216 459.885 110.703 457.81C111.19 455.735 110.46 450.547 110.034 449.315C109.969 449.127 109.9 448.888 109.829 448.618C106.802 447.152 96.042 446.523 93.4891 450.992Z" fill="#E2E2E2" stroke="#FF8080"/>
<path id="RightAnkle" d="M151.989 449.364C151.144 451.729 150.754 457.42 150.949 458.059C151.145 458.699 151.274 461.64 150.559 463.238C149.844 464.836 149.909 468.354 150.299 471.486C152.64 466.275 164.731 460.009 169.802 462.407C169.021 460.297 168.924 460.201 169.411 458.858C169.899 457.515 170.289 454.255 169.997 452.624C168.631 446.678 154.59 447.637 151.989 449.364Z" fill="#E2E2E2" stroke="#FF8080"/>
<path id="LeftFoot" d="M93.3181 461.751C92.892 464.418 90.8431 467.577 89.2966 470.737C87.6756 474.049 84.4799 478.071 81.5158 481.43C78.5517 484.789 77.6717 491.413 77.7643 492.596C77.8569 493.779 78.9222 494.82 80.0337 494.678C80.0337 495.104 80.4042 495.766 81.6084 495.624C81.701 496.381 81.6084 497.99 84.6651 497.517C86.1472 499.362 87.5829 499.268 88.6482 498.179C90.6089 500.569 92.4952 500.637 94.4838 500.378C96.1047 500.167 98.6057 497.422 99.0225 496.381C99.4394 495.34 99.8562 494.915 101.199 493.826C101.93 493.235 102.605 492.28 103.11 490.486C103.532 488.983 103.835 486.664 103.947 485.657C104.195 483.449 104.195 481.557 105.615 477.582C108.826 476.194 110.802 473.671 111.358 470.454C111.4 470.211 111.437 469.969 111.473 469.728C108.228 465.031 98.011 460.076 93.3181 461.751Z" fill="#E2E2E2" stroke="#FF8080"/>
<path id="RightFoot" d="M150.922 471.44C151.292 474.539 155.366 477.133 156.477 477.702C157.588 478.271 157.588 479.283 157.896 480.359C158.205 481.434 158.946 484.407 159.316 488.328C159.687 492.249 161.631 494.305 162.525 495.032C163.42 495.76 163.575 496.171 163.883 496.803C164.192 497.436 165.149 499.112 168.019 500.503C170.889 501.895 173.574 500.06 174.222 498.701C175.888 500.408 178.326 498.859 178.758 497.91C180.579 498.447 181.659 496.676 181.69 495.949C182.276 496.076 183.017 495.539 183.264 494.969C183.573 495.096 184.19 495.222 185.116 493.704C186.042 492.186 184.005 487.063 183.573 485.482C183.14 483.9 179.993 479.853 177.524 477.196C175.055 474.54 174.623 472.895 172.895 470.112C171.166 467.329 170.179 464.546 169.438 462.459C164.624 460.087 153.144 466.286 150.922 471.44Z" fill="#E2E2E2" stroke="#FF8080"/>
</svg>
