<svg width="235" height="502" viewBox="0 0 235 502" fill="none" xmlns="http://www.w3.org/2000/svg">
<path id="Face" d="M118.215 1C108.04 1 101.001 6.39039 98.4133 14.9917C97.1512 19.1886 97 24.48 97 30.9696C97 31.8306 97.0236 32.6904 97.0629 33.5474C97.2675 37.9735 97.9702 42.2927 98.8728 46.0041C100.133 51.187 101.78 55.1839 102.995 56.6192C104.359 58.7186 106.676 60.4714 108.427 61.8451C111.388 64.1674 114.19 65.4062 118.654 65.4062C123.257 65.4062 126.551 63.8897 129.366 61.3754C130.897 60.008 132.839 58.0675 133.501 56.5533C134.819 53.9601 135.919 49.7423 136.762 45.5024C137.749 40.5336 138.381 35.54 138.593 33.0891C138.646 32.4829 138.673 32.0266 138.673 31.7714C138.674 25.806 141.785 1 118.215 1Z" fill="#E2E2E2" stroke="#FF8080"/>
<path id="LeftEye" d="M113.785 28.6488C113.785 26.7414 111.632 25.1953 108.491 25.1953C105.351 25.1953 102.805 26.7414 102.805 28.6488C102.805 30.5561 105.35 32.1022 108.491 32.1022C111.632 32.1022 113.785 30.5561 113.785 28.6488Z" fill="#E2E2E2" stroke="#FF8080"/>
<path id="RightEye" d="M127.673 32.1022C130.813 32.1022 133.359 30.5561 133.359 28.6488C133.359 26.7414 130.814 25.1953 127.673 25.1953C124.532 25.1953 122.379 26.7414 122.379 28.6488C122.379 30.5561 124.532 32.1022 127.673 32.1022Z" fill="#E2E2E2" stroke="#FF8080"/>
<path id="LeftEar" d="M94.2909 31.8792C93.1616 32.1257 92.6707 35.1331 93.0634 37.253C93.4562 39.373 94.5988 42.8734 95.5989 44.6482C96.5164 46.2775 97.5023 48.4176 98.8736 46.0042C97.9705 42.2924 97.2682 37.9732 97.0636 33.5475C96.1511 32.6451 95.0183 31.7206 94.2909 31.8792Z" fill="#E2E2E2" stroke="#FF8080"/>
<path id="RightEar" d="M139.366 45.8804C139.955 44.9436 141.085 42.38 141.625 40.901C142.165 39.4219 142.754 35.2806 142.558 33.4565C142.361 31.6323 140.692 31.5337 140.005 32.5691C139.688 33.0459 139.142 33.1749 138.597 33.0889C138.385 35.5397 137.753 40.5334 136.766 45.5021C137.708 47.5976 138.902 46.6179 139.366 45.8804Z" fill="#E2E2E2" stroke="#FF8080"/>
<path id="Nose" d="M112.664 39.6208C112.503 41.3637 114.957 42.3837 116.424 42.0153C118.259 42.9824 118.9 42.2452 120.047 41.785C122.157 42.1072 122.982 40.5875 122.982 38.9302C122.982 37.2725 121.377 36.4435 121.194 34.4174C121.01 32.3913 119.955 31.6084 120.047 29.4443C120.139 27.2802 119.176 25.8066 117.814 25.8066C115.903 25.8066 115.507 28.7075 115.645 29.7208C115.782 30.7336 114.865 33.6349 114.727 34.7862C114.59 35.9374 112.893 37.1345 112.664 39.6208Z" fill="#E2E2E2" stroke="#FF8080"/>
<path id="Lip" d="M121.484 45.849C120.695 44.9068 119.304 45.2776 118.729 45.5895C118.421 45.7568 117.505 45.8924 116.937 45.4598C116.368 45.0271 114.795 45.4168 114.357 46.0222C113.92 46.628 110.247 48.1903 109.942 49.228C109.636 50.266 112.959 50.7468 113.789 51.0497C114.62 51.3526 115.363 52.3473 118.38 52.3473C121.397 52.3473 122.215 51.383 123.014 51.2229C123.814 51.0627 125.856 50.4392 125.987 49.6172C126.118 48.7957 122.752 47.3632 121.484 45.849Z" fill="#E2E2E2" stroke="#FF8080"/>
<path id="Neck" d="M107.646 86.3318C110.657 85.8061 113.145 87.7781 114.847 89.3557C116.549 90.9334 119.429 90.9334 120.869 89.3557C122.31 87.7781 125.583 85.6747 130.427 86.4635C135.272 87.2523 136.843 86.0691 140.771 84.0971C145.957 81.4932 148.412 80.506 155.179 78.3608C153.515 78.2508 151.863 78.207 150.263 78.1155C143.389 77.7211 134.961 76.2893 133.57 72.8568C131.968 68.9052 132.295 62.0689 133.504 56.5547C132.842 58.0688 130.9 60.0093 129.369 61.3767C126.555 63.8911 123.26 65.4076 118.657 65.4076C114.193 65.4076 111.391 64.1684 108.43 61.8465C106.679 60.4727 104.362 58.72 102.998 56.6206C103.129 57.4752 104.078 64.0244 103.718 69.3403C103.36 74.6245 99.4907 75.9048 91.3011 77.4588C88.1289 78.0606 82.9068 78.64 79.7578 78.9047C87.8752 80.2851 96.7785 83.046 98.3497 84.2292C99.9208 85.4124 104.635 86.8575 107.646 86.3318Z" fill="#E2E2E2" stroke="#FF8080"/>
<path id="Chest" d="M157.977 120.118C157.27 118.227 156.734 116.324 156.873 113.807C157.043 110.729 157.647 106.594 157.499 102.371C157.219 94.4272 154.276 86.1774 140.768 84.0957C136.84 86.0677 135.269 87.251 130.425 86.4622C125.581 85.6733 122.307 87.7767 120.867 89.3544C119.427 90.932 116.546 90.932 114.844 89.3544C113.142 87.7767 110.654 85.8047 107.643 86.3304C104.632 86.8562 99.9183 85.4103 98.3472 84.227C85.4335 85.4899 79.6041 93.8625 79.4611 103.664C79.4403 105.092 79.5389 106.551 79.7553 108.022C80.504 113.112 79.707 117.285 78.6394 121.065C77.2804 125.877 75.8211 126.947 75.8765 134.662C76.3675 137.817 77.8896 141.268 79.3625 143.043C79.5566 144.993 80.7954 151.045 81.5963 154.417C81.808 155.308 81.9891 156.012 82.112 156.404C82.2955 156.986 82.574 159.593 82.8525 163.032C83.7413 164.606 85.7783 175.776 102.032 168.648C106.765 166.572 111.505 163.463 118.216 163.463C124.926 163.463 130.145 166.799 134.345 168.693C150.065 175.777 152.801 166.016 154.002 162.178C154.344 158.18 154.656 155.191 154.778 154.777C155.171 153.446 156.807 145.229 157.069 142.928C158.378 141.35 160.179 137.012 160.342 135.27C161.334 127.371 159.339 123.764 157.977 120.118Z" fill="#E2E2E2" stroke="#FF8080"/>
<path id="Breast" d="M157.977 120.119C151.505 102.373 131.996 114.598 118.216 114.598C104.435 114.598 84.862 101.846 78.6394 121.067C77.2804 125.879 75.8211 126.949 75.8765 134.664C76.3675 137.819 77.8896 141.27 79.3625 143.045C88.3967 154.631 100.115 147.596 105.679 142.65C108.976 139.721 113.731 136.809 118.216 136.809C121.98 136.809 125.319 138.71 129.05 141.862C137.692 149.159 150.261 152.363 157.069 142.93C158.378 141.352 160.179 137.013 160.342 135.271C161.334 127.373 159.339 123.766 157.977 120.119Z" fill="#E2E2E2" stroke="#FF8080"/>
<path id="Belly" d="M134.342 168.693C130.142 166.8 124.923 163.463 118.212 163.463C111.502 163.463 106.761 166.572 102.029 168.648C85.7752 175.777 83.7382 164.606 82.8493 163.032C83.4664 170.646 84.0858 182.343 83.68 185.195C83.2342 188.327 80.0366 196.255 77.8672 201.553C79.2954 204.517 87.7026 217.19 117.897 217.19C148.092 217.19 157.171 204.821 158.763 201.553C157.888 199.453 157.001 196.831 156.64 195.746C156.149 194.267 153.989 189.041 153.007 186.576C152.33 184.877 153.24 171.046 153.999 162.178C152.797 166.017 150.061 175.777 134.342 168.693Z" fill="#E2E2E2" stroke="#FF8080"/>
<path id="LowerAbdomen" d="M117.902 217.192C87.7071 217.192 79.2999 204.519 77.8717 201.555C77.1729 203.261 76.5806 204.695 76.2216 205.608C75.9396 206.325 74.3547 210.411 72.582 216.69C80.7917 218.932 98.7429 237.956 106.367 247.94C112.358 245.147 122.836 245.061 130.068 247.668C136.592 237.861 152.112 219.206 163.669 216.671C161.793 209.31 160.058 204.21 159.689 203.537C159.401 203.012 159.085 202.318 158.767 201.555C157.176 204.823 148.097 217.192 117.902 217.192Z" fill="#E2E2E2" stroke="#FF8080"/>
<path id="ReproductiveOrgan" d="M106.367 247.938C108.624 250.893 110.132 253.057 110.46 253.757C116.482 260.529 121.72 258.688 126.499 253.429C126.831 252.753 128.112 250.608 130.068 247.667C122.836 245.059 112.358 245.146 106.367 247.938Z" fill="#E2E2E2" stroke="#FF8080"/>
<path id="LeftArm" d="M79.4592 103.664C79.6022 93.8619 85.4315 85.4894 98.3452 84.2269C96.7741 83.0436 87.8708 80.2828 79.7534 78.9023C76.6044 79.167 65.2858 78.5738 61.8815 96.4536C61.3607 99.1892 59.2844 107.951 58.5664 116.034C61.8866 110.885 76.2316 110.02 79.4592 103.664Z" fill="#E2E2E2" stroke="#FF8080"/>
<path id="RightArm" d="M157.5 102.371C159.493 110.653 176.974 109.821 177.954 116.963C177.954 114.794 175.99 93.3974 170.491 85.7064C166.271 79.8049 160.664 78.7222 155.177 78.3594C148.411 80.5046 145.956 81.4922 140.77 84.0957C154.278 86.1778 157.22 94.4272 157.5 102.371Z" fill="#E2E2E2" stroke="#FF8080"/>
<path id="LeftBicep" d="M78.6369 121.067C79.7045 117.287 80.5015 113.114 79.7528 108.024C79.5364 106.553 79.4378 105.094 79.4586 103.666C76.2311 110.022 61.886 110.887 58.5658 116.035C58.4601 117.221 58.3835 118.393 58.3458 119.528C58.0721 127.776 51.3554 145.384 49.3828 152.106C50.1578 160.599 64.5637 160.219 68.4817 156.71C68.8125 155.864 69.1134 155.144 69.3439 154.631C70.2603 152.593 75.4977 138.986 75.874 134.664C75.8186 126.949 77.2779 125.879 78.6369 121.067Z" fill="#E2E2E2" stroke="#FF8080"/>
<path id="RightBicep" d="M187.028 151.88C186.948 151.577 186.867 151.265 186.779 150.937C185.907 147.673 184.604 143.177 182.662 137.374C181.193 132.985 180.168 129.37 179.46 126.443C179.005 124.562 178.679 122.965 178.45 121.629C178.059 119.349 177.949 117.832 177.949 116.963C176.969 109.821 159.488 110.653 157.495 102.371C157.644 106.593 157.04 110.729 156.87 113.807C156.731 116.324 157.267 118.226 157.973 120.118C159.336 123.764 161.331 127.371 160.339 135.27C160.47 136.026 161.059 136.88 161.386 137.998C161.714 139.116 164.267 146.938 165.445 150.159C165.98 151.621 166.867 153.585 167.724 155.571C169.632 160.482 189.884 164.309 187.028 151.88Z" fill="#E2E2E2" stroke="#FF8080"/>
<path id="LeftElbow" d="M49.3866 152.105C49.2366 152.616 49.1113 153.071 49.0209 153.447C47.7444 158.772 46.7624 162.716 45.2895 165.181C44.7616 166.064 43.5522 168.484 42.1641 171.773C45.39 167.837 50.6577 166.926 54.6394 168.692C58.7531 170.516 61.7897 175.636 62.2944 182.012C62.4567 181.347 62.5847 180.757 62.6703 180.267C63.3251 176.52 65.2234 168.829 65.8126 165.41C66.2537 162.852 67.5012 159.227 68.4856 156.709C64.5675 160.219 50.1612 160.599 49.3866 152.105Z" fill="#E2E2E2" stroke="#FF8080"/>
<path id="RightElbow" d="M182.017 168.692C186.601 166.659 192.027 166.694 194.627 172.583C194.092 171.297 193.574 170.125 193.099 169.103C192.654 168.147 192.247 167.322 191.896 166.659C189.441 162.025 188.754 158.771 188.361 157.292C188.177 156.598 187.796 154.816 187.031 151.881C189.887 164.31 169.636 160.483 167.727 155.572C168.757 157.959 169.745 160.377 170.031 161.992C170.372 163.923 171.144 168.237 171.798 170.406C172.129 171.502 172.627 174.279 173.175 177.113C173.71 179.886 174.292 182.713 174.81 184.079C172.968 175.889 176.985 170.923 182.017 168.692Z" fill="#E2E2E2" stroke="#FF8080"/>
<path id="LeftHand" d="M54.6394 168.692C50.6577 166.926 45.39 167.837 42.1641 171.773C39.6785 177.663 36.6187 186.352 35.8626 194.071C34.1421 211.632 31.5729 218.212 29.6094 223.468C30.303 225.191 32.4367 226.106 34.4701 226.992C36.6371 227.937 40.2795 228.62 42.3286 228.246C43.1334 226.459 44.0062 224.566 44.8967 222.962C48.2354 216.947 53.4398 205.838 56.1893 199.659C58.5795 194.288 61.2155 186.435 62.2945 182.012C61.7897 175.635 58.7527 170.516 54.6394 168.692Z" fill="#E2E2E2" stroke="#FF8080"/>
<path id="RightHand" d="M202.187 226.992C204.205 226.113 206.322 225.205 207.032 223.508C206.964 223.33 206.894 223.149 206.823 222.962C204.27 216.257 202.306 204.326 200.931 194.071C199.963 186.851 197.097 178.507 194.628 172.584C192.028 166.694 186.602 166.659 182.018 168.692C176.986 170.924 172.969 175.889 174.811 184.08C175.858 186.84 179.131 197.884 182.667 204.589C185.606 210.164 192.007 223.26 194.363 228.252C196.419 228.612 200.032 227.931 202.187 226.992Z" fill="#E2E2E2" stroke="#FF8080"/>
<path id="LeftWrist" d="M34.4693 226.992C32.4359 226.106 30.3023 225.192 29.6086 223.469C29.3399 224.187 29.0826 224.882 28.8407 225.575C27.7637 228.661 26.6305 230.378 25.6367 231.368C28.3116 231.05 31.0552 231.871 33.3358 233.31C35.7824 234.854 37.9062 235.125 38.574 237.162C38.977 235.766 39.9892 233.418 41.305 230.52C41.6287 229.806 41.9724 229.035 42.3278 228.246C40.2787 228.62 36.6364 227.937 34.4693 226.992Z" fill="#E2E2E2" stroke="#FF8080"/>
<path id="RightWrist" d="M203.321 233.309C206.394 231.37 210.309 230.549 213.762 232.131C210.199 230.278 209.418 229.697 207.032 223.508C206.322 225.205 204.205 226.112 202.187 226.992C200.032 227.931 196.419 228.611 194.363 228.251C194.841 229.263 195.153 229.943 195.236 230.159C195.727 231.441 197.445 235.188 197.494 236.272C197.517 236.76 197.678 238.125 197.933 239.83C197.396 235.163 200.074 235.358 203.321 233.309Z" fill="#E2E2E2" stroke="#FF8080"/>
<path id="LeftPalm" d="M33.3339 233.309C31.0534 231.87 28.3098 231.049 25.6349 231.367C24.7711 232.227 24.0123 232.539 23.4871 232.723C22.3579 233.117 15.3859 237.308 13.1273 238.738C10.8688 240.167 9.73954 242.435 7.5301 243.52C5.32067 244.604 4.1914 246.231 3.60222 246.922C3.01304 247.612 1 249.88 1 250.816C1 251.753 2.71845 252.295 4.1423 251.95C5.56616 251.605 8.75757 248.549 10.3287 247.07C11.8999 245.59 14.0602 245.147 15.1404 245.147C16.2205 245.147 16.1714 246.379 15.8769 246.922C15.5823 247.464 14.7476 250.175 14.3057 252.295C13.8638 254.415 13.9129 256.979 13.5692 257.817C13.2255 258.655 11.6053 265.458 11.3598 267.135C11.1143 268.811 10.3287 273.248 11.3598 274.628C12.3909 276.009 13.7165 275.121 14.1584 274.086C14.6003 273.051 15.5823 268.515 15.7633 267.43C15.9444 266.346 18.43 259.099 18.6755 258.458C18.921 257.817 19.9029 259.493 19.5592 260.726C19.2155 261.958 18.6264 265.36 17.6935 268.022C16.7606 270.684 16.6624 273.593 16.3678 274.924C16.0732 276.255 15.6805 278.129 15.7787 279.46C15.8769 280.791 17.0061 281.777 17.939 281.284C18.8719 280.791 19.8538 277.537 20.0993 276.354C20.3448 275.171 21.6705 270.684 22.3088 269.107C22.947 267.529 23.4871 261.021 23.8799 260.035C24.2727 259.049 24.6164 260.479 24.3709 261.12C24.1254 261.761 23.0452 268.219 22.8979 269.649C22.7506 271.079 21.5232 275.516 21.8669 277.192C22.2106 278.868 23.8799 278.573 24.5182 277.882C25.1565 277.192 25.5002 275.072 25.6966 274.037C25.8929 273.002 27.3168 268.762 27.8282 267.135C28.3396 265.508 29.1825 260.726 29.428 259.148C29.6735 257.57 30.2136 258.507 29.8699 259.838C29.5262 261.169 29.5262 264.522 29.1825 265.458C28.8389 266.395 28.7898 268.663 28.4952 269.255C28.2006 269.846 27.415 271.572 28.1024 272.804C28.7898 274.037 30.0663 273.396 30.41 272.854C30.7537 272.311 31.883 268.663 32.374 267.578C32.8649 266.494 33.405 263.24 33.8469 261.317C34.2888 259.394 35.107 256.979 35.5654 254.415C36.0237 251.852 36.0889 248.894 36.5473 247.184C37.0057 245.475 38.3149 239.822 38.3805 238.113C38.3891 237.881 38.4575 237.557 38.5718 237.161C37.9044 235.124 35.781 234.853 33.3339 233.309Z" fill="#E2E2E2" stroke="#FF8080"/>
<path id="RightPalm" d="M231.109 244.03C229.8 241.992 225.742 240.086 224.432 238.705C223.122 237.325 217.427 234.038 213.761 232.132C210.308 230.549 206.393 231.37 203.32 233.309C200.073 235.358 197.395 235.164 197.932 239.83C198.244 241.916 198.698 244.51 199.212 246.626C200.145 250.472 200.047 253.035 200.587 255.451C201.127 257.866 202.501 261.17 202.845 263.832C203.189 266.494 204.171 266.691 205.005 269.847C205.84 273.002 207.706 273.15 208.197 272.262C208.688 271.375 208.344 269.304 208.05 268.91C207.755 268.515 207.46 267.677 207.313 266.839C207.166 266.001 206.675 263.536 206.478 262.303C206.282 261.071 205.251 257.127 205.595 256.585C205.938 256.042 206.969 258.162 207.068 258.902C207.166 259.641 208.246 264.769 209.032 267.283C209.817 269.797 210.603 274.579 211.83 276.305C213.058 278.031 214.629 276.749 214.629 275.171C214.629 273.593 213.45 268.417 213.352 267.283C213.254 266.149 211.83 259.395 211.634 258.754C211.437 258.113 212.616 258.31 212.714 258.852C212.812 259.395 213.401 263.043 213.892 264.522C214.383 266.001 215.856 271.671 216.053 272.706C216.249 273.741 216.838 278.277 218.458 279.115C220.079 279.953 220.766 278.277 220.913 276.798C221.061 275.319 218.753 264.966 218.409 263.191C218.066 261.416 216.691 256.535 217.231 256.042C217.771 255.55 219.146 260.677 219.391 262.254C219.637 263.832 221.11 271.276 221.699 272.755C222.288 274.234 223.957 274.629 224.645 273.347C225.332 272.065 224.056 263.733 223.908 260.972C223.761 258.211 222.19 255.352 222.141 252.592C222.092 249.831 220.079 244.506 220.242 243.635C220.438 242.592 223.843 243.767 225.021 244.687C226.2 245.607 228.36 248.04 229.538 248.631C230.717 249.223 233.008 250.143 233.532 248.631C234.056 247.119 232.419 246.068 231.109 244.03Z" fill="#E2E2E2" stroke="#FF8080"/>
<path id="LeftThigh" d="M72.5777 216.689C69.0665 229.127 64.8173 250.182 68.4927 270.783C69.2488 275.023 80.1451 332.705 81.2253 338.523C81.4005 339.467 81.6825 340.827 82.0175 342.479C103.547 340.829 110.645 361.862 113.708 346.445C113.577 335.274 113.048 317.618 112.649 310.323C112.455 306.773 111.998 298.908 114.056 286.428C114.991 280.762 119.326 264.768 110.455 253.758C110.128 253.057 108.62 250.894 106.363 247.939C98.7385 237.956 80.7877 218.931 72.5777 216.689Z" fill="#E2E2E2" stroke="#FF8080"/>
<path id="RightThigh" d="M130.065 247.667C128.108 250.608 126.828 252.753 126.495 253.429C117.854 262.96 120.407 277.192 122.371 286.461C124.335 295.729 123.942 305.885 123.844 309.928C123.768 313.033 122.786 332.132 122.66 344.846C125.601 363.469 131.405 340.199 154.303 342.552C154.552 341.03 154.795 339.509 155.038 338.095C155.692 334.283 162.108 301.547 163.286 295.236C164.465 288.926 169.013 270.708 169.015 253.725C169.016 240.812 166.211 226.659 163.666 216.67C152.109 219.206 136.589 237.86 130.065 247.667Z" fill="#E2E2E2" stroke="#FF8080"/>
<path id="LeftKnee" d="M82.0195 342.48C83.2442 348.524 85.1795 358.5 85.2337 366.561C89.1404 385.515 104.463 380.931 110.495 372.041C110.586 371.358 110.713 370.759 110.883 370.274C112.16 366.626 113.633 361.893 113.731 352.92C113.749 351.242 113.74 349.016 113.71 346.446C110.647 361.862 103.549 340.83 82.0195 342.48Z" fill="#E2E2E2" stroke="#FF8080"/>
<path id="RightKnee" d="M122.662 344.846C122.624 348.687 122.664 351.945 122.831 354.004C123.551 362.878 124.468 366.493 125.842 371.555C131.8 381.02 149.279 386.739 151.341 365.244C151.341 360.609 152.159 353.082 152.945 349.796C153.439 347.727 153.882 345.138 154.305 342.552C131.407 340.199 125.603 363.469 122.662 344.846Z" fill="#E2E2E2" stroke="#FF8080"/>
<path id="LeftLeg" d="M85.2322 366.561C85.2546 369.865 84.9612 372.847 84.1721 375.105C80.4481 385.757 82.8955 412.475 84.1721 419.278C85.4486 426.082 92.5188 458.621 93.632 467.2C93.7467 468.083 93.7997 469.01 93.8174 469.952C96.5795 467.247 101.935 466.062 105.16 466.77C107.119 467.199 108.41 468.201 109.518 469.712C108.578 465.9 108.844 461.924 109.115 455.959C109.409 449.451 111.766 423.026 112.944 414.447C114.123 405.869 113.239 396.206 111.962 389.994C110.856 384.609 109.898 376.485 110.494 372.04C104.462 380.931 89.1393 385.515 85.2322 366.561Z" fill="#E2E2E2" stroke="#FF8080"/>
<path id="RightLeg" d="M125.845 371.555C127.22 376.617 123.816 393.379 123.095 401.202C122.375 409.024 125.059 422.697 125.125 427.364C125.19 432.031 126.368 444.127 127.023 449.779C127.678 455.433 127.94 466.016 126.761 470.88C128.058 468.71 129.068 467.301 131.496 466.769C134.95 466.011 140.067 467.029 142.604 470.157C142.8 466.41 144.666 455.071 148.398 438.9C152.129 422.729 153.406 411.39 154.093 399.262C154.78 387.134 153.897 379.64 153.209 377.569C152.522 375.499 151.343 369.878 151.343 365.244C149.281 386.739 131.802 381.021 125.845 371.555Z" fill="#E2E2E2" stroke="#FF8080"/>
<path id="LeftAnkle" d="M105.161 466.769C101.936 466.062 96.5802 467.247 93.8181 469.952C93.899 474.286 93.1955 478.969 93.8947 481.398C94.5283 483.6 94.7985 483.727 94.4097 485.275C97.3579 483.533 108.261 483.023 111.019 486.434C110.797 485.058 110.371 483.669 110.097 482.679C109.606 480.904 110.195 479.228 110.784 478.242C111.373 477.256 111.079 474.89 109.802 470.748C109.696 470.403 109.604 470.057 109.519 469.711C108.411 468.2 107.12 467.199 105.161 466.769Z" fill="#E2E2E2" stroke="#FF8080"/>
<path id="RightAnkle" d="M131.494 466.769C129.067 467.301 128.057 468.71 126.76 470.88C125.582 475.745 125.516 476.863 126.302 479.689C127.088 482.516 126.302 483.041 125.582 486.788C127.415 482.186 140.586 483.138 142.079 485.408C141.425 483.698 142.276 483.239 142.799 480.478C143.323 477.717 142.406 473.904 142.603 470.157C140.065 467.029 134.949 466.011 131.494 466.769Z" fill="#E2E2E2" stroke="#FF8080"/>
<path id="LeftFoot" d="M94.4091 485.276C94.2756 485.808 94.0647 486.505 93.7634 487.513C92.585 491.457 90.0971 494.152 88.8536 496.19C87.61 498.228 88.6572 499.279 89.9663 500.003C91.2755 500.725 91.2755 499.805 91.8647 500.265C92.4538 500.726 96.7093 500.463 97.1673 500.332C97.6253 500.2 97.7565 500.068 99.1968 500.66C100.637 501.251 102.666 499.74 103.387 500.397C104.107 501.054 107.315 501.054 108.362 500.951C109.409 500.847 110.457 498.885 110.653 498.293C110.85 497.702 110.784 497.11 111.046 496.321C111.308 495.532 111.504 493.889 110.98 492.772C110.457 491.655 110.391 491.457 110.98 489.485C111.241 488.613 111.194 487.529 111.018 486.437C108.26 483.025 97.3574 483.535 94.4091 485.276Z" fill="#E2E2E2" stroke="#FF8080"/>
<path id="RightFoot" d="M125.581 486.789C124.861 490.536 126.628 490.668 125.711 492.376C124.795 494.086 125.188 496.518 125.646 496.912C126.104 497.307 125.122 497.898 126.824 499.739C128.526 501.58 132.258 500.791 132.847 500.594C133.436 500.396 134.026 500.199 134.418 500.673C134.811 501.147 136.972 500.922 137.43 500.673C137.888 500.424 138.739 500.199 139.001 500.547C139.262 500.896 141.03 500.396 141.947 500.528C142.863 500.66 144.238 500.067 145.154 500.199C146.071 500.33 147.97 499.41 147.904 497.635C147.838 495.861 146.791 495.204 146.006 494.02C145.22 492.837 142.732 487.118 142.078 485.409C140.584 483.139 127.414 482.187 125.581 486.789Z" fill="#E2E2E2" stroke="#FF8080"/>
</svg>
