<svg width="16" height="20" viewBox="0 0 16 20" fill="none" xmlns="http://www.w3.org/2000/svg">
<path d="M8 8.79997C8.39556 8.79997 8.78224 8.68267 9.11114 8.4629C9.44004 8.24314 9.69638 7.93078 9.84776 7.56533C9.99913 7.19988 10.0387 6.79775 9.96157 6.40979C9.8844 6.02182 9.69392 5.66546 9.41421 5.38575C9.13451 5.10605 8.77814 4.91557 8.39018 4.8384C8.00222 4.76122 7.60009 4.80083 7.23463 4.95221C6.86918 5.10358 6.55682 5.35993 6.33706 5.68883C6.1173 6.01772 6 6.4044 6 6.79997C6 7.3304 6.21071 7.83911 6.58579 8.21418C6.96086 8.58925 7.46957 8.79997 8 8.79997ZM7.29 15.71C7.38296 15.8037 7.49356 15.8781 7.61542 15.9289C7.73728 15.9796 7.86799 16.0058 8 16.0058C8.13201 16.0058 8.26272 15.9796 8.38458 15.9289C8.50644 15.8781 8.61704 15.8037 8.71 15.71L12.8 11.61C13.75 10.6605 14.397 9.45065 14.6593 8.13342C14.9216 6.8162 14.7873 5.45077 14.2735 4.20986C13.7597 2.96894 12.8894 1.90828 11.7727 1.16202C10.656 0.415772 9.34309 0.0174561 8 0.0174561C6.65691 0.0174561 5.344 0.415772 4.22731 1.16202C3.11062 1.90828 2.24033 2.96894 1.72652 4.20986C1.2127 5.45077 1.07845 6.8162 1.34073 8.13342C1.60301 9.45065 2.25005 10.6605 3.2 11.61L7.29 15.71ZM3.23 6.33997C3.29833 5.62698 3.52502 4.93826 3.89352 4.32408C4.26203 3.7099 4.76305 3.18577 5.36 2.78997C6.1442 2.27506 7.06186 2.00072 8 2.00072C8.93814 2.00072 9.8558 2.27506 10.64 2.78997C11.233 3.18442 11.7311 3.70537 12.0987 4.31535C12.4663 4.92533 12.6942 5.6092 12.7659 6.31775C12.8376 7.02631 12.7514 7.74195 12.5135 8.41322C12.2756 9.08449 11.8919 9.6947 11.39 10.2L8 13.59L4.61 10.2C4.10752 9.6996 3.72293 9.0935 3.48421 8.42577C3.24548 7.75804 3.15864 7.04549 3.23 6.33997ZM15 18H1C0.734784 18 0.48043 18.1053 0.292893 18.2929C0.105357 18.4804 0 18.7347 0 19C0 19.2652 0.105357 19.5195 0.292893 19.7071C0.48043 19.8946 0.734784 20 1 20H15C15.2652 20 15.5196 19.8946 15.7071 19.7071C15.8946 19.5195 16 19.2652 16 19C16 18.7347 15.8946 18.4804 15.7071 18.2929C15.5196 18.1053 15.2652 18 15 18Z" fill="white"/>
</svg>
